<svg width="2118" height="480" viewBox="0 0 2118 480" fill="none" xmlns="http://www.w3.org/2000/svg">
<rect width="2118" height="480" fill="white"/>
<circle cx="240" cy="240" r="160" fill="#6F33B5"/>
<path fill-rule="evenodd" clip-rule="evenodd" d="M202.933 220.49C202.653 218.643 202.508 216.751 202.508 214.826C202.508 194.119 219.294 177.333 240 177.333C260.706 177.333 277.492 194.119 277.492 214.826C277.492 216.751 277.347 218.643 277.067 220.49C279.575 219.961 282.176 219.683 284.841 219.683C305.548 219.683 322.333 236.469 322.333 257.175C322.333 277.882 305.548 294.668 284.841 294.668H252.456C241.38 294.668 232.402 285.689 232.402 274.614V257.175C232.402 236.607 215.728 219.932 195.159 219.932C174.59 219.932 157.916 236.607 157.916 257.175C157.916 277.744 174.59 294.419 195.159 294.419C199.512 294.419 203.69 293.672 207.573 292.299L207.656 292.534C203.747 293.916 199.541 294.668 195.159 294.668C174.453 294.668 157.667 277.882 157.667 257.175C157.667 236.469 174.453 219.683 195.159 219.683C197.824 219.683 200.425 219.961 202.933 220.49ZM202.757 214.826C202.757 194.257 219.431 177.582 240 177.582C260.569 177.582 277.243 194.257 277.243 214.826C277.243 235.394 260.569 252.069 240 252.069C237.319 252.069 234.705 251.785 232.185 251.247C229.763 235.998 218.146 223.811 203.194 220.546C202.906 218.681 202.757 216.771 202.757 214.826ZM277.026 220.754C274.184 238.643 258.689 252.318 240 252.318C237.335 252.318 234.734 252.04 232.226 251.511C232.506 253.358 232.651 255.25 232.651 257.175V274.614C232.651 285.552 241.518 294.419 252.456 294.419H284.841C305.41 294.419 322.084 277.744 322.084 257.175C322.084 236.607 305.41 219.932 284.841 219.932C282.16 219.932 279.546 220.216 277.026 220.754Z" fill="#C4C4C4" stroke="white" stroke-width="13.3333" stroke-linecap="round" stroke-linejoin="round"/>
<path d="M559.632 285L551.712 264.984H512.256L504.768 285H477.984L520.752 183.048H544.656L586.992 285H559.632ZM532.272 210.264L519.312 245.256H544.944L532.272 210.264Z" fill="black"/>
<path d="M630.472 204.072V285H605.848V204.072H577.048V183.048H659.272V204.072H630.472Z" fill="black"/>
<path d="M734.88 285V242.376H695.136V285H670.512V183.048H695.136V221.64H734.88V183.048H759.504V285H734.88Z" fill="black"/>
<path d="M780.481 285V183.048H805.249V285H780.481Z" fill="black"/>
<path d="M876.868 285H852.245L813.652 183.048H841.301L864.917 255.336H865.493L888.965 183.048H916.181L876.868 285Z" fill="black"/>
<path d="M989.241 285L981.321 264.984H941.865L934.377 285H907.593L950.361 183.048H974.265L1016.6 285H989.241ZM961.881 210.264L948.921 245.256H974.553L961.881 210.264Z" fill="black"/>
<path d="M1094.21 285H1083.84V192.264H1049.71V183.048H1128.34V192.264H1094.21V285Z" fill="black"/>
<path d="M1154.01 275.784H1208.59V285H1143.65V183.048H1206.86V192.264H1154.01V227.4H1203.41V236.472H1154.01V275.784Z" fill="black"/>
<path d="M1314.69 268.584C1312.96 271.176 1310.85 273.624 1308.35 275.928C1305.95 278.232 1303.12 280.248 1299.86 281.976C1296.69 283.704 1293.14 285.048 1289.2 286.008C1285.36 287.064 1281.14 287.592 1276.53 287.592C1268.85 287.592 1261.74 286.248 1255.22 283.56C1248.69 280.872 1243.07 277.176 1238.37 272.472C1233.66 267.672 1229.97 262.008 1227.28 255.48C1224.69 248.952 1223.39 241.8 1223.39 234.024C1223.39 226.248 1224.74 219.096 1227.42 212.568C1230.11 206.04 1233.81 200.424 1238.51 195.72C1243.31 190.92 1248.93 187.176 1255.36 184.488C1261.89 181.8 1268.94 180.456 1276.53 180.456C1280.27 180.456 1283.92 180.84 1287.47 181.608C1291.12 182.376 1294.53 183.48 1297.7 184.92C1300.86 186.264 1303.74 187.944 1306.34 189.96C1308.93 191.88 1311.09 194.088 1312.82 196.584L1304.18 202.92C1303.12 201.288 1301.68 199.656 1299.86 198.024C1298.13 196.392 1296.06 194.952 1293.66 193.704C1291.26 192.456 1288.62 191.448 1285.74 190.68C1282.96 189.912 1279.94 189.528 1276.67 189.528C1270.05 189.528 1264.1 190.728 1258.82 193.128C1253.63 195.528 1249.22 198.792 1245.57 202.92C1241.92 206.952 1239.14 211.656 1237.22 217.032C1235.3 222.408 1234.34 228.072 1234.34 234.024C1234.34 239.976 1235.3 245.64 1237.22 251.016C1239.23 256.392 1242.06 261.144 1245.71 265.272C1249.36 269.304 1253.78 272.52 1258.96 274.92C1264.24 277.32 1270.14 278.52 1276.67 278.52C1282.53 278.52 1288.1 277.32 1293.38 274.92C1298.66 272.52 1303.07 268.68 1306.62 263.4L1314.69 268.584Z" fill="black"/>
<path d="M1332.5 183.048H1342.87V227.256H1398.46V183.048H1408.82V285H1398.46V236.76H1342.87V285H1332.5V183.048Z" fill="black"/>
<path d="M1508.15 269.88H1508.44V183.048H1518.81V285H1505.85L1446.52 197.304H1446.23V285H1435.86V183.048H1448.82L1508.15 269.88Z" fill="black"/>
<path d="M1646.63 234.024C1646.63 241.8 1645.29 248.952 1642.6 255.48C1639.91 262.008 1636.17 267.672 1631.37 272.472C1626.66 277.176 1621.05 280.872 1614.52 283.56C1608.09 286.248 1601.08 287.592 1593.5 287.592C1585.91 287.592 1578.86 286.248 1572.33 283.56C1565.9 280.872 1560.28 277.176 1555.48 272.472C1550.78 267.672 1547.08 262.008 1544.39 255.48C1541.7 248.952 1540.36 241.8 1540.36 234.024C1540.36 226.248 1541.7 219.096 1544.39 212.568C1547.08 206.04 1550.78 200.424 1555.48 195.72C1560.28 190.92 1565.9 187.176 1572.33 184.488C1578.86 181.8 1585.91 180.456 1593.5 180.456C1601.08 180.456 1608.09 181.8 1614.52 184.488C1621.05 187.176 1626.66 190.92 1631.37 195.72C1636.17 200.424 1639.91 206.04 1642.6 212.568C1645.29 219.096 1646.63 226.248 1646.63 234.024ZM1635.69 234.024C1635.69 228.072 1634.73 222.408 1632.81 217.032C1630.89 211.656 1628.1 206.952 1624.46 202.92C1620.81 198.792 1616.34 195.528 1611.06 193.128C1605.88 190.728 1600.02 189.528 1593.5 189.528C1586.97 189.528 1581.06 190.728 1575.78 193.128C1570.6 195.528 1566.18 198.792 1562.54 202.92C1558.89 206.952 1556.1 211.656 1554.18 217.032C1552.26 222.408 1551.3 228.072 1551.3 234.024C1551.3 239.976 1552.26 245.64 1554.18 251.016C1556.1 256.392 1558.89 261.096 1562.54 265.128C1566.18 269.16 1570.6 272.376 1575.78 274.776C1581.06 277.176 1586.97 278.376 1593.5 278.376C1600.02 278.376 1605.88 277.176 1611.06 274.776C1616.34 272.376 1620.81 269.16 1624.46 265.128C1628.1 261.096 1630.89 256.392 1632.81 251.016C1634.73 245.64 1635.69 239.976 1635.69 234.024Z" fill="black"/>
<path d="M1678.54 275.784H1726.06V285H1668.18V183.048H1678.54V275.784Z" fill="black"/>
<path d="M1838.02 234.024C1838.02 241.8 1836.68 248.952 1833.99 255.48C1831.3 262.008 1827.56 267.672 1822.76 272.472C1818.06 277.176 1812.44 280.872 1805.91 283.56C1799.48 286.248 1792.47 287.592 1784.89 287.592C1777.3 287.592 1770.25 286.248 1763.72 283.56C1757.29 280.872 1751.67 277.176 1746.87 272.472C1742.17 267.672 1738.47 262.008 1735.78 255.48C1733.1 248.952 1731.75 241.8 1731.75 234.024C1731.75 226.248 1733.1 219.096 1735.78 212.568C1738.47 206.04 1742.17 200.424 1746.87 195.72C1751.67 190.92 1757.29 187.176 1763.72 184.488C1770.25 181.8 1777.3 180.456 1784.89 180.456C1792.47 180.456 1799.48 181.8 1805.91 184.488C1812.44 187.176 1818.06 190.92 1822.76 195.72C1827.56 200.424 1831.3 206.04 1833.99 212.568C1836.68 219.096 1838.02 226.248 1838.02 234.024ZM1827.08 234.024C1827.08 228.072 1826.12 222.408 1824.2 217.032C1822.28 211.656 1819.5 206.952 1815.85 202.92C1812.2 198.792 1807.74 195.528 1802.46 193.128C1797.27 190.728 1791.42 189.528 1784.89 189.528C1778.36 189.528 1772.46 190.728 1767.18 193.128C1761.99 195.528 1757.58 198.792 1753.93 202.92C1750.28 206.952 1747.5 211.656 1745.58 217.032C1743.66 222.408 1742.7 228.072 1742.7 234.024C1742.7 239.976 1743.66 245.64 1745.58 251.016C1747.5 256.392 1750.28 261.096 1753.93 265.128C1757.58 269.16 1761.99 272.376 1767.18 274.776C1772.46 277.176 1778.36 278.376 1784.89 278.376C1791.42 278.376 1797.27 277.176 1802.46 274.776C1807.74 272.376 1812.2 269.16 1815.85 265.128C1819.5 261.096 1822.28 256.392 1824.2 251.016C1826.12 245.64 1827.08 239.976 1827.08 234.024Z" fill="black"/>
<path d="M1936.9 201.336C1933.34 197.592 1929.12 194.712 1924.22 192.696C1919.33 190.584 1913.71 189.528 1907.38 189.528C1900.85 189.528 1894.94 190.728 1889.66 193.128C1884.48 195.528 1880.06 198.792 1876.42 202.92C1872.77 206.952 1869.94 211.656 1867.92 217.032C1866 222.408 1865.04 228.072 1865.04 234.024C1865.04 239.976 1866 245.64 1867.92 251.016C1869.94 256.392 1872.77 261.096 1876.42 265.128C1880.06 269.16 1884.48 272.376 1889.66 274.776C1894.94 277.176 1900.85 278.376 1907.38 278.376C1913.14 278.376 1918.42 277.752 1923.22 276.504C1928.02 275.256 1931.9 273.672 1934.88 271.752V240.792H1911.12V231.72H1945.25V277.656C1939.68 281.016 1933.68 283.512 1927.25 285.144C1920.82 286.776 1914.14 287.592 1907.23 287.592C1899.55 287.592 1892.45 286.248 1885.92 283.56C1879.39 280.872 1873.78 277.176 1869.07 272.472C1864.37 267.672 1860.67 262.008 1857.98 255.48C1855.39 248.952 1854.1 241.8 1854.1 234.024C1854.1 226.248 1855.44 219.096 1858.13 212.568C1860.82 206.04 1864.51 200.424 1869.22 195.72C1874.02 190.92 1879.63 187.176 1886.06 184.488C1892.59 181.8 1899.65 180.456 1907.23 180.456C1915.39 180.456 1922.5 181.656 1928.54 184.056C1934.59 186.456 1939.78 189.816 1944.1 194.136L1936.9 201.336Z" fill="black"/>
<path d="M1999.89 285H1989.52V241.08L1951.36 183.048H1964.32L1994.99 232.44L2025.95 183.048H2038.05L1999.89 241.08V285Z" fill="black"/>
</svg>
