<svg width="750" height="242" viewBox="0 0 750 242" fill="none" xmlns="http://www.w3.org/2000/svg">
<path d="M242 121C242 187.826 187.826 242 121 242C54.1735 242 0 187.826 0 121C0 54.1735 54.1735 0 121 0C187.826 0 242 54.1735 242 121Z" fill="#6F33B5"/>
<path fill-rule="evenodd" clip-rule="evenodd" d="M92.9681 106.246C92.7563 104.849 92.6465 103.418 92.6465 101.962C92.6465 86.3026 105.341 73.6083 121 73.6083C136.659 73.6083 149.353 86.3026 149.353 101.962C149.353 103.418 149.244 104.849 149.032 106.246C150.929 105.846 152.895 105.635 154.911 105.635C170.57 105.635 183.265 118.33 183.265 133.989C183.265 149.648 170.57 162.342 154.911 162.342H130.42C122.044 162.342 115.254 155.552 115.254 147.177V133.989C115.254 118.434 102.644 105.824 87.0889 105.824C71.5337 105.824 58.9238 118.434 58.9238 133.989C58.9238 149.544 71.5337 162.154 87.0889 162.154C90.3809 162.154 93.5409 161.589 96.4772 160.551L96.54 160.729C93.5838 161.774 90.4026 162.342 87.0889 162.342C71.4297 162.342 58.7354 149.648 58.7354 133.989C58.7354 118.33 71.4297 105.635 87.0889 105.635C89.1047 105.635 91.0713 105.846 92.9681 106.246ZM92.8349 101.962C92.8349 86.4067 105.445 73.7967 121 73.7967C136.555 73.7967 149.165 86.4067 149.165 101.962C149.165 117.517 136.555 130.127 121 130.127C118.973 130.127 116.996 129.913 115.09 129.506C113.258 117.973 104.473 108.757 93.1651 106.288C92.9477 104.878 92.8349 103.433 92.8349 101.962ZM149.001 106.445C146.852 119.974 135.134 130.315 121 130.315C118.984 130.315 117.018 130.105 115.121 129.705C115.333 131.102 115.442 132.533 115.442 133.989V147.177C115.442 155.448 122.148 162.154 130.42 162.154H154.911C170.466 162.154 183.076 149.544 183.076 133.989C183.076 118.434 170.466 105.824 154.911 105.824C152.884 105.824 150.907 106.038 149.001 106.445Z" fill="#C4C4C4"/>
<path d="M176.409 133.989C176.409 122.116 166.784 112.49 154.911 112.49C154.741 112.49 154.572 112.492 154.403 112.496C150.036 126.354 137.296 136.489 122.109 136.962V147.177C122.109 151.767 125.83 155.487 130.42 155.487H154.911C166.784 155.487 176.409 145.862 176.409 133.989ZM121 80.4638C109.368 80.4638 99.8953 89.701 99.5147 101.24C109.483 105.024 117.269 113.22 120.493 123.453C120.662 123.457 120.831 123.46 121 123.46C132.873 123.46 142.498 113.835 142.498 101.962C142.498 90.0886 132.873 80.4638 121 80.4638ZM189.932 133.989C189.932 153.33 174.252 169.009 154.911 169.009H130.42C118.362 169.009 108.587 159.234 108.587 147.177V133.989C108.587 122.116 98.9621 112.49 87.0889 112.49C75.2157 112.49 65.5909 122.116 65.5909 133.989C65.591 145.862 75.2158 155.487 87.0889 155.487C89.6137 155.487 92.0232 155.055 94.2559 154.266L94.5821 154.16C97.9627 153.155 101.574 154.967 102.763 158.33L102.825 158.508C103.414 160.175 103.318 162.007 102.556 163.602C101.794 165.198 100.429 166.425 98.7618 167.015C95.1019 168.308 91.1699 169.009 87.0889 169.009C67.7479 169.009 52.0686 153.33 52.0684 133.989C52.0684 114.977 67.2197 99.5036 86.1065 98.9833C87.6181 81.0364 102.662 66.9413 121 66.9413C139.338 66.9414 154.381 81.0365 155.893 98.9833C174.78 99.5031 189.932 114.976 189.932 133.989Z" fill="white"/>
<path d="M725.571 151.136H690.499L684.483 172H666.435L688.323 100.576C689.859 95.456 691.48 91.488 693.187 88.672C694.894 85.856 696.899 83.8507 699.203 82.656C701.592 81.4613 704.536 80.864 708.035 80.864C711.534 80.864 714.435 81.4613 716.739 82.656C719.043 83.8507 721.048 85.856 722.755 88.672C724.547 91.488 726.211 95.456 727.747 100.576L749.635 172H731.587L725.571 151.136ZM721.603 137.696L710.851 100.832C710.254 98.6133 709.315 97.504 708.035 97.504C706.755 97.504 705.816 98.6133 705.219 100.832L694.467 137.696H721.603Z" fill="#6F33B5"/>
<path d="M624.733 173.536C621.234 173.536 618.29 172.939 615.901 171.744C613.597 170.549 611.549 168.544 609.757 165.728C608.05 162.827 606.472 158.859 605.021 153.824L584.285 82.4H602.333L621.917 153.568C622.514 155.787 623.453 156.896 624.733 156.896C626.013 156.896 626.952 155.787 627.549 153.568L647.133 82.4H665.181L644.445 153.824C642.994 158.859 641.373 162.827 639.581 165.728C637.874 168.544 635.826 170.549 633.437 171.744C631.133 172.939 628.232 173.536 624.733 173.536Z" fill="#6F33B5"/>
<path d="M546.455 82.4H564.503V172H546.455V82.4Z" fill="#6F33B5"/>
<path d="M447.43 82.4H465.478V120.032H500.294V82.4H518.342V172H500.294V134.112H465.478V172H447.43V82.4Z" fill="#6F33B5"/>
<path d="M382.593 96.48H355.585V82.4H427.649V96.48H400.641V172H382.593V96.48Z" fill="#6F33B5"/>
<path d="M332.696 151.136H297.624L291.608 172H273.56L295.448 100.576C296.984 95.456 298.605 91.488 300.312 88.672C302.019 85.856 304.024 83.8507 306.328 82.656C308.717 81.4613 311.661 80.864 315.16 80.864C318.659 80.864 321.56 81.4613 323.864 82.656C326.168 83.8507 328.173 85.856 329.88 88.672C331.672 91.488 333.336 95.456 334.872 100.576L356.76 172H338.712L332.696 151.136ZM328.728 137.696L317.976 100.832C317.379 98.6133 316.44 97.504 315.16 97.504C313.88 97.504 312.941 98.6133 312.344 100.832L301.592 137.696H328.728Z" fill="#6F33B5"/>
</svg>
